<svg width="512" height="300" version="1.1" viewBox="0 0 512 300" xmlns="http://www.w3.org/2000/svg">
    <g fill-rule="evenodd">
        <!-- <path d="m255.84 9.3555c-6.6979 0.0076-13.424 0.18244-18.32 0.49805-91.376 5.8902-174.8 53.805-225.41 129.41-3.0616 4.5739-3.0616 16.912 0 21.486 50.608 75.605 134.04 123.52 225.41 129.41 9.7779 0.6303 26.842 0.62901 36.621-2e-3 91.612-5.9106 175.22-54.058 225.77-129.98 3.0504-4.5805 3.0219-16.921-0.0508-21.488-50.784-75.482-134.32-123.2-225.7-128.88-4.8968-0.30447-11.624-0.46463-18.322-0.45703z" fill="#fff" /> -->
        <!-- <ellipse cx="256" cy="150" rx="149.86" ry="145.32" fill="#c2c2ff" /> -->
        <path d="m124.23 51.804c-41.314 21.654-76.794 53.561-103.7 92.908-3.1376 4.5878-2.0255 7.5485 0 10.591 26.414 39.677 62.392 71.256 103.71 92.91-20.761-27.342-33.078-61.346-33.078-98.207 5e-6 -36.859 12.315-70.861 33.074-98.203zm263.55 0c41.314 21.654 76.794 53.561 103.7 92.908 3.1376 4.5878 2.0255 7.5485 0 10.591-26.414 39.677-62.392 71.256-103.71 92.91 20.761-27.342 33.078-61.346 33.078-98.207 0-36.859-12.315-70.861-33.074-98.203zm-95.201 98.203c0 20.027-16.374 36.262-36.572 36.262-20.198 0-36.572-16.235-36.572-36.262 0-20.027 16.374-36.262 36.572-36.262 20.198 1e-5 36.572 16.235 36.572 36.262zm105.28 0c0 77.675-63.507 140.64-141.85 140.64-78.34 0-141.85-62.968-141.85-140.64 1e-5 -77.675 63.507-140.64 141.85-140.64 78.34 9.9e-6 141.85 62.968 141.85 140.64zm-393.51-15.949c-5.7791 8.6336-5.7791 23.263 1.2e-6 31.897 52.235 78.036 138.32 127.46 232.58 133.54 10.429 0.67226 27.395 0.67186 37.824-9.9e-4 94.505-6.0972 180.78-55.769 232.96-134.13 5.7586-8.6471 5.7239-23.277-0.0757-31.897-52.417-77.909-138.61-127.13-232.88-133-10.43-0.64853-27.397-0.62932-37.825 0.042933-94.262 6.0762-180.35 55.504-232.58 133.54zm251.67-114.78v84.552c4.0622 0.0546 8.0997 0.63599 12.01 1.7293l22.064-81.647c-11.105-3.0132-22.561-4.5712-34.074-4.6342zm-34.076 4.6342c-11.098 2.9893-21.753 7.4053-31.695 13.136l42.619 73.192c3.4931-2.0341 7.2389-3.6076 11.143-4.6806zm99.848 13.136-42.619 73.192c3.4964 2.0164 6.7129 4.4759 9.5684 7.3163l60.268-59.756c-8.1212-8.064-17.271-15.041-27.217-20.752zm-158.76 20.754c-8.1337 8.0522-15.171 17.124-20.932 26.986l73.816 42.256c2.035-3.4662 4.5169-6.6548 7.3828-9.4852zm206.91 26.986-73.818 42.256c2.0522 3.4633 3.6398 7.1774 4.7226 11.048l82.346-21.879c-3.0156-11.003-7.4701-21.567-13.25-31.424zm-241.09 31.426c-3.0399 11.012-4.6118 22.371-4.6758 33.787h85.275c0.0555-4.0285 0.64256-8.0324 1.7461-11.91zm173.74 33.787v6e-3c-8e-3 4.0328-0.54804 8.0472-1.6074 11.941l82.211 21.84c3.038-11.01 4.6087-22.367 4.6719-33.781v-6e-3zm-91.402 11.912-82.346 21.877c3.0153 11.004 7.4698 21.57 13.25 31.428l73.814-42.256c-2.051-3.4642-3.6373-7.1788-4.7188-11.05zm85.135 11.16c-2.0348 3.4916-4.5221 6.704-7.3984 9.555l60.09 59.578c8.1332-8.0529 15.169-17.126 20.93-26.988zm-73.031 9.3787-60.268 59.756c8.1217 8.0648 17.272 15.042 27.219 20.754l42.617-73.19c-3.4966-2.0176-6.7131-4.4784-9.5684-7.3202zm55.998 7.5138c-3.5206 2.0201-7.2929 3.5742-11.221 4.6226l22.027 81.513c11.099-2.9904 21.755-7.4077 31.697-13.14zm-35.285 4.487-22.064 81.649c11.107 3.0136 22.563 4.5716 34.078 4.6342v-84.552c-4.0636-0.0549-8.1024-0.63694-12.014-1.7313z" fill="#656500" />
    </g>
</svg>
