<svg width="512" height="608" version="1.1" viewBox="0 0 512 608" xmlns="http://www.w3.org/2000/svg">
    <g>
        <path d="m256 0c-141.38 0-256 85.962-256 192v320c0 35.346 38.205 64 85.333 64 47.128 0 85.333-28.654 85.333-64a85.333 64 0 0 0 85.333 64 85.333 64 0 0 0 85.333-64c0 35.346 38.205 64 85.333 64 47.128 0 85.333-28.654 85.333-64v-128c0-35.076-12.723-67.864-34.646-96.15 22.368-28.951 34.578-61.932 34.646-95.85 0-106.04-114.62-192-256-192z"/>
        <path d="m256 0c-141.38 0-256 85.962-256 192v352c0 35.346 38.205 64 85.333 64 32.081 0 59.995-13.294 74.57-32.922 23.54 20.117 57.98 32.922 96.096 32.922s72.556-12.805 96.096-32.922c14.575 19.628 42.489 32.922 74.57 32.922 47.128 0 85.333-28.654 85.333-64v-160c0-35.076-12.723-67.864-34.646-96.15 22.368-28.951 34.578-61.932 34.646-95.85 0-106.04-114.62-192-256-192z"/>
        <path d="m256 128c-47.128 0-85.333 28.654-85.333 64s38.205 64 85.333 64 85.333-28.654 85.333-64-38.205-64-85.333-64zm0 192c-47.128 0-85.333 28.654-85.333 64v128a85.333 64 0 0 0 85.333 64 85.333 64 0 0 0 85.333-64v-128c0-35.346-38.206-64-85.333-64z" fill="#fff"/>
    </g>
    <g transform="translate(640)">
        <path fill="#f60" d="m256 6e-7c-141.38 0-256 90.738-256 202.67v337.78c0 37.31 38.205 67.556 85.333 67.556 47.128 0 85.333-30.246 85.333-67.556h170.67c0 37.31 38.205 67.556 85.333 67.556 47.128 0 85.333-30.246 85.333-67.556v-135.11c0-37.025-12.723-71.634-34.646-101.49 22.368-30.56 34.578-65.373 34.646-101.17 0-111.93-114.62-202.67-256-202.67z"/>
        <path fill="#008080" d="m256 135.11c-47.128 0-85.333 30.246-85.333 67.556 0 37.31 38.205 67.556 85.333 67.556s85.333-30.246 85.333-67.556c0-37.31-38.205-67.556-85.333-67.556zm0 202.67c-47.128 0-85.333 30.246-85.333 67.556v135.11a85.333 67.556 0 0 0 85.333 67.556 85.333 67.556 0 0 0 85.333-67.556v-135.11c0-37.309-38.206-67.556-85.333-67.556z"/>
    </g>
    <view id="color" viewBox="640 0 512 608"/>
    <view id="bw" viewBox="0 0 512 608"/>
        
</svg>
